<svg width="58" height="96" viewBox="0 0 58 96" fill="none" xmlns="http://www.w3.org/2000/svg">
<path fill-rule="evenodd" clip-rule="evenodd" d="M49.57 32.8363V90.1913C49.57 97.3983 39.359 97.3983 39.359 90.1913V32.8363C22.843 25.3285 35.7535 0.402344 44.4645 0.402344C53.1715 0.402344 66.0855 25.3283 49.57 32.8363ZM16.836 39.141V90.192C16.836 97.399 6.92579 97.399 6.92579 90.192V39.141C2.72269 37.0394 0.621094 32.8363 0.621094 28.329V5.20404C0.621094 2.20014 5.12499 2.20014 5.12499 5.20404V19.618C5.12499 22.6219 9.62889 22.6219 9.62889 19.618V5.20404C9.62889 2.20014 14.1328 2.20014 14.1328 5.20404V19.618C14.1328 22.6219 18.6367 22.6219 18.6367 19.618V5.20404C18.6367 2.20014 23.1406 2.20014 23.1406 5.20404V28.329C23.1406 32.8329 21.0391 37.036 16.836 39.141Z" fill="#f7edee"/>
</svg>
