<svg width="2000" height="2000" viewBox="0 0 2000 2000" fill="none" xmlns="http://www.w3.org/2000/svg">
<path d="M0 664C0 117.196 117.196 0 664 0H1336C1882.8 0 2000 117.196 2000 664V1336C2000 1882.8 1882.8 2000 1336 2000H664C117.196 2000 0 1882.8 0 1336V664Z" fill="#3F4188"/>
<path d="M223.922 1241L237.815 761.111H423.312L492.029 1028.47H496.91L565.627 761.111H750.748L764.642 1241H633.217L630.964 1098.69L628.335 914.69H622.703L552.86 1184.3H435.704L365.485 914.69H359.477L357.224 1099.06L355.347 1241H223.922ZM1187.81 1240.62C1182.81 1235.62 1177.05 1229.73 1170.54 1222.98C1164.03 1215.97 1157.27 1208.83 1150.26 1201.57C1143.25 1194.31 1136.62 1187.43 1130.36 1180.92C1124.1 1174.16 1118.85 1168.53 1114.59 1164.02L1095.44 1141.49L940.733 997.3L917.828 974.395C900.305 957.372 887.412 940.975 879.151 925.204C870.89 909.183 866.76 891.159 866.76 871.132V867.753C866.76 831.955 879.777 803.417 905.812 782.139C931.847 760.861 970.148 750.221 1020.71 750.221C1051.51 750.221 1078.29 752.474 1101.07 756.98C1124.1 761.486 1144 766.994 1160.78 773.502L1172.79 878.642C1155.27 872.634 1135.74 867.628 1114.21 863.623C1092.94 859.617 1072.28 857.614 1052.26 857.614C1035.73 857.614 1024.09 859.993 1017.34 864.749C1010.83 869.505 1007.57 876.139 1007.57 884.65V885.777C1007.57 892.786 1010.08 899.67 1015.08 906.429C1020.34 912.938 1028.1 921.199 1038.36 931.212L1168.66 1057.38L1200.2 1090.42C1209.72 1100.19 1218.73 1109.7 1227.24 1118.96C1236 1127.97 1244.51 1136.86 1252.77 1145.62C1261.03 1154.38 1269.3 1163.27 1277.56 1172.28C1286.07 1181.05 1294.58 1190.18 1303.09 1199.69C1311.6 1209.21 1320.49 1219.35 1329.75 1230.11V1240.62H1187.81ZM1003.44 1252.64C941.61 1252.64 895.799 1238.87 866.009 1211.34C836.47 1183.8 821.7 1145.62 821.7 1096.81V1090.8C821.7 1057.76 828.834 1029.59 843.103 1006.31C857.623 983.031 880.904 963.005 912.946 946.232L985.418 1020.58C973.652 1026.09 965.141 1033.35 959.884 1042.36C954.627 1051.37 951.998 1064.01 951.998 1080.29V1084.79C951.998 1104.07 957.506 1118.96 968.52 1129.48C979.785 1139.99 996.683 1145.25 1019.21 1145.25C1037.49 1145.25 1053.01 1142.37 1065.77 1136.61C1078.79 1130.6 1089.93 1122.84 1099.19 1113.33L1135.62 1070.9C1146.63 1050.87 1155.02 1029.59 1160.78 1007.06C1166.78 984.533 1170.91 961.127 1173.17 936.845H1301.21C1296.46 976.147 1287.57 1012.7 1274.55 1046.49C1261.54 1080.29 1242.26 1112.08 1216.73 1141.87L1172.79 1183.55C1159.27 1197.82 1144.38 1210.21 1128.11 1220.72C1112.09 1230.99 1093.94 1238.87 1073.66 1244.38C1053.38 1249.89 1029.98 1252.64 1003.44 1252.64ZM1559.92 1253.39C1487.07 1253.39 1432.62 1235.74 1396.57 1200.45C1360.52 1164.9 1342.5 1113.58 1342.5 1046.49V961.628C1342.5 894.288 1360.65 842.219 1396.95 805.42C1433.25 768.621 1487.57 750.221 1559.92 750.221C1632.26 750.221 1686.58 768.621 1722.88 805.42C1759.18 842.219 1777.33 894.288 1777.33 961.628V1046.49C1777.33 1113.58 1759.31 1164.9 1723.26 1200.45C1687.21 1235.74 1632.76 1253.39 1559.92 1253.39ZM1559.92 1141.49C1586.7 1141.49 1606.48 1133.86 1619.24 1118.59C1632.26 1103.07 1638.77 1081.29 1638.77 1053.25V954.493C1638.77 924.453 1632.26 901.423 1619.24 885.401C1606.48 869.38 1586.7 861.369 1559.92 861.369C1533.13 861.369 1513.23 869.38 1500.21 885.401C1487.44 901.423 1481.06 924.453 1481.06 954.493V1053.25C1481.06 1081.29 1487.44 1103.07 1500.21 1118.59C1513.23 1133.86 1533.13 1141.49 1559.92 1141.49Z" fill="#F7EDEE"/>
</svg>
