<svg width="4846" height="2000" viewBox="0 0 4846 2000" fill="none" xmlns="http://www.w3.org/2000/svg">
<path d="M0 664C0 117.196 117.196 0 664 0H1336C1882.8 0 2000 117.196 2000 664V1336C2000 1882.8 1882.8 2000 1336 2000H664C117.196 2000 0 1882.8 0 1336V664Z" fill="#3F4188"/>
<path d="M223.922 1241L237.815 761.111H423.312L492.029 1028.47H496.91L565.627 761.111H750.748L764.642 1241H633.217L630.964 1098.69L628.335 914.69H622.703L552.86 1184.3H435.704L365.485 914.69H359.477L357.224 1099.06L355.347 1241H223.922ZM1187.81 1240.62C1182.81 1235.62 1177.05 1229.73 1170.54 1222.98C1164.03 1215.97 1157.27 1208.83 1150.26 1201.57C1143.25 1194.31 1136.62 1187.43 1130.36 1180.92C1124.1 1174.16 1118.85 1168.53 1114.59 1164.02L1095.44 1141.49L940.733 997.3L917.828 974.395C900.305 957.372 887.412 940.975 879.151 925.204C870.89 909.183 866.76 891.159 866.76 871.132V867.753C866.76 831.955 879.777 803.417 905.812 782.139C931.847 760.861 970.148 750.221 1020.71 750.221C1051.51 750.221 1078.29 752.474 1101.07 756.98C1124.1 761.486 1144 766.994 1160.78 773.502L1172.79 878.642C1155.27 872.634 1135.74 867.628 1114.21 863.623C1092.94 859.617 1072.28 857.614 1052.26 857.614C1035.73 857.614 1024.09 859.993 1017.34 864.749C1010.83 869.505 1007.57 876.139 1007.57 884.65V885.777C1007.57 892.786 1010.08 899.67 1015.08 906.429C1020.34 912.938 1028.1 921.199 1038.36 931.212L1168.66 1057.38L1200.2 1090.42C1209.72 1100.19 1218.73 1109.7 1227.24 1118.96C1236 1127.97 1244.51 1136.86 1252.77 1145.62C1261.03 1154.38 1269.3 1163.27 1277.56 1172.28C1286.07 1181.05 1294.58 1190.18 1303.09 1199.69C1311.6 1209.21 1320.49 1219.35 1329.75 1230.11V1240.62H1187.81ZM1003.44 1252.64C941.61 1252.64 895.799 1238.87 866.009 1211.34C836.47 1183.8 821.7 1145.62 821.7 1096.81V1090.8C821.7 1057.76 828.834 1029.59 843.103 1006.31C857.623 983.031 880.904 963.005 912.946 946.232L985.418 1020.58C973.652 1026.09 965.141 1033.35 959.884 1042.36C954.627 1051.37 951.998 1064.01 951.998 1080.29V1084.79C951.998 1104.07 957.506 1118.96 968.52 1129.48C979.785 1139.99 996.683 1145.25 1019.21 1145.25C1037.49 1145.25 1053.01 1142.37 1065.77 1136.61C1078.79 1130.6 1089.93 1122.84 1099.19 1113.33L1135.62 1070.9C1146.63 1050.87 1155.02 1029.59 1160.78 1007.06C1166.78 984.533 1170.91 961.127 1173.17 936.845H1301.21C1296.46 976.147 1287.57 1012.7 1274.55 1046.49C1261.54 1080.29 1242.26 1112.08 1216.73 1141.87L1172.79 1183.55C1159.27 1197.82 1144.38 1210.21 1128.11 1220.72C1112.09 1230.99 1093.94 1238.87 1073.66 1244.38C1053.38 1249.89 1029.98 1252.64 1003.44 1252.64ZM1559.92 1253.39C1487.07 1253.39 1432.62 1235.74 1396.57 1200.45C1360.52 1164.9 1342.5 1113.58 1342.5 1046.49V961.628C1342.5 894.288 1360.65 842.219 1396.95 805.42C1433.25 768.621 1487.57 750.221 1559.92 750.221C1632.26 750.221 1686.58 768.621 1722.88 805.42C1759.18 842.219 1777.33 894.288 1777.33 961.628V1046.49C1777.33 1113.58 1759.31 1164.9 1723.26 1200.45C1687.21 1235.74 1632.76 1253.39 1559.92 1253.39ZM1559.92 1141.49C1586.7 1141.49 1606.48 1133.86 1619.24 1118.59C1632.26 1103.07 1638.77 1081.29 1638.77 1053.25V954.493C1638.77 924.453 1632.26 901.423 1619.24 885.401C1606.48 869.38 1586.7 861.369 1559.92 861.369C1533.13 861.369 1513.23 869.38 1500.21 885.401C1487.44 901.423 1481.06 924.453 1481.06 954.493V1053.25C1481.06 1081.29 1487.44 1103.07 1500.21 1118.59C1513.23 1133.86 1533.13 1141.49 1559.92 1141.49Z" fill="#F7EDEE"/>
<path d="M2238.2 929L2248.23 582.662H2382.1L2431.7 775.614H2435.22L2484.81 582.662H2618.42L2628.44 929H2533.59L2531.97 826.291L2530.07 693.501H2526.01L2475.6 888.079H2391.05L2340.37 693.501H2336.03L2334.41 826.562L2333.05 929H2238.2ZM2827.12 937.943C2774.55 937.943 2735.26 925.206 2709.24 899.732C2683.22 874.077 2670.22 837.041 2670.22 788.622V727.376C2670.22 678.777 2683.31 641.198 2709.51 614.64C2735.71 588.082 2774.91 574.803 2827.12 574.803C2879.34 574.803 2918.54 588.082 2944.74 614.64C2970.93 641.198 2984.03 678.777 2984.03 727.376V788.622C2984.03 837.041 2971.03 874.077 2945.01 899.732C2918.99 925.206 2879.7 937.943 2827.12 937.943ZM2827.12 857.185C2846.46 857.185 2860.73 851.675 2869.94 840.654C2879.34 829.453 2884.03 813.735 2884.03 793.5V722.227C2884.03 700.547 2879.34 683.926 2869.94 672.363C2860.73 660.8 2846.46 655.019 2827.12 655.019C2807.79 655.019 2793.43 660.8 2784.04 672.363C2774.82 683.926 2770.21 700.547 2770.21 722.227V793.5C2770.21 813.735 2774.82 829.453 2784.04 840.654C2793.43 851.675 2807.79 857.185 2827.12 857.185ZM3179.16 937.943C3127.49 937.943 3089.28 925.748 3064.52 901.358C3039.77 876.787 3027.4 840.835 3027.4 793.5V582.662H3125.77V794.855C3125.77 815.09 3130.11 830.266 3138.78 840.383C3147.45 850.5 3160.91 855.559 3179.16 855.559C3197.4 855.559 3210.77 850.5 3219.27 840.383C3227.94 830.266 3232.27 815.09 3232.27 794.855V582.662H3330.65V793.5C3330.65 840.835 3318.27 876.787 3293.52 901.358C3268.95 925.748 3230.83 937.943 3179.16 937.943ZM3516.98 582.391L3596.12 821.955H3599.91L3595.57 677.241V582.391H3688.26V929H3559.8L3476.88 682.39H3473.08L3477.42 829.272V929H3384.47V582.391H3516.98ZM3821.89 929V601.903H3920.27V929H3821.89ZM3728.94 664.233V582.662H4012.95V664.233H3728.94ZM3989.15 929L4085.36 582.662H4231.42L4326.55 929H4227.63L4161.51 646.889H4155.27L4088.07 929H3989.15ZM4079.94 853.933V779.137H4235.22V853.933H4079.94ZM4457.27 929H4358.9V582.662H4457.27V929ZM4645.97 582.391L4725.11 821.955H4728.9L4724.56 677.241V582.391H4817.25V929H4688.79L4605.87 682.39H4602.07L4606.41 829.272V929H4513.46V582.391H4645.97ZM2492.94 1416.73C2489.33 1413.12 2485.17 1408.87 2480.48 1403.99C2475.78 1398.93 2470.9 1393.78 2465.84 1388.54C2460.78 1383.31 2456 1378.34 2451.48 1373.64C2446.96 1368.76 2443.17 1364.7 2440.1 1361.44L2426.28 1345.18L2314.63 1241.12L2298.09 1224.59C2285.45 1212.3 2276.14 1200.47 2270.18 1189.09C2264.22 1177.53 2261.24 1164.52 2261.24 1150.06V1147.63C2261.24 1121.79 2270.63 1101.19 2289.42 1085.84C2308.21 1070.48 2335.85 1062.8 2372.35 1062.8C2394.57 1062.8 2413.9 1064.43 2430.34 1067.68C2446.96 1070.93 2461.33 1074.91 2473.43 1079.6L2482.1 1155.48C2469.46 1151.15 2455.36 1147.54 2439.83 1144.65C2424.47 1141.75 2409.57 1140.31 2395.11 1140.31C2383.19 1140.31 2374.79 1142.03 2369.91 1145.46C2365.21 1148.89 2362.86 1153.68 2362.86 1159.82V1160.63C2362.86 1165.69 2364.67 1170.66 2368.28 1175.54C2372.08 1180.24 2377.68 1186.2 2385.09 1193.42L2479.12 1284.48L2501.89 1308.33C2508.75 1315.37 2515.26 1322.24 2521.4 1328.92C2527.72 1335.43 2533.86 1341.84 2539.83 1348.17C2545.79 1354.49 2551.75 1360.9 2557.71 1367.41C2563.85 1373.73 2570 1380.32 2576.14 1387.19C2582.28 1394.06 2588.7 1401.37 2595.38 1409.14V1416.73H2492.94ZM2359.88 1425.4C2315.26 1425.4 2282.2 1415.46 2260.7 1395.59C2239.38 1375.72 2228.72 1348.17 2228.72 1312.94V1308.6C2228.72 1284.75 2233.87 1264.43 2244.17 1247.62C2254.64 1230.82 2271.45 1216.37 2294.57 1204.26L2346.87 1257.92C2338.38 1261.9 2332.24 1267.14 2328.45 1273.64C2324.65 1280.14 2322.76 1289.27 2322.76 1301.01V1304.26C2322.76 1318.18 2326.73 1328.92 2334.68 1336.51C2342.81 1344.1 2355 1347.89 2371.26 1347.89C2384.45 1347.89 2395.65 1345.82 2404.87 1341.66C2414.26 1337.33 2422.3 1331.73 2428.99 1324.86L2455.27 1294.24C2463.22 1279.78 2469.28 1264.43 2473.43 1248.17C2477.77 1231.91 2480.75 1215.01 2482.37 1197.49H2574.79C2571.35 1225.85 2564.94 1252.23 2555.54 1276.62C2546.15 1301.01 2532.24 1323.96 2513.81 1345.46L2482.1 1375.54C2472.35 1385.83 2461.6 1394.78 2449.85 1402.37C2438.29 1409.77 2425.19 1415.46 2410.56 1419.44C2395.93 1423.41 2379.03 1425.4 2359.88 1425.4ZM2866.29 1425.94C2813.72 1425.94 2774.42 1413.21 2748.41 1387.73C2722.39 1362.08 2709.38 1325.04 2709.38 1276.62V1215.38C2709.38 1166.78 2722.48 1129.2 2748.68 1102.64C2774.87 1076.08 2814.08 1062.8 2866.29 1062.8C2918.5 1062.8 2957.71 1076.08 2983.91 1102.64C3010.1 1129.2 3023.2 1166.78 3023.2 1215.38V1276.62C3023.2 1325.04 3010.19 1362.08 2984.18 1387.73C2958.16 1413.21 2918.87 1425.94 2866.29 1425.94ZM2866.29 1345.18C2885.62 1345.18 2899.9 1339.67 2909.11 1328.65C2918.5 1317.45 2923.2 1301.73 2923.2 1281.5V1210.23C2923.2 1188.55 2918.5 1171.93 2909.11 1160.36C2899.9 1148.8 2885.62 1143.02 2866.29 1143.02C2846.96 1143.02 2832.6 1148.8 2823.2 1160.36C2813.99 1171.93 2809.38 1188.55 2809.38 1210.23V1281.5C2809.38 1301.73 2813.99 1317.45 2823.2 1328.65C2832.6 1339.67 2846.96 1345.18 2866.29 1345.18ZM3035.36 1417L3131.56 1070.66H3277.63L3372.75 1417H3273.84L3207.71 1134.89H3201.48L3134.27 1417H3035.36ZM3126.14 1341.93V1267.14H3281.43V1341.93H3126.14ZM3599.41 1417L3506.73 1266.87H3491.83V1212.67H3506.73L3598.33 1070.66H3709.17L3591.28 1245.19V1223.51L3712.96 1417H3599.41ZM3405.11 1417V1070.66H3502.4V1417H3405.11ZM3848.63 1424.86C3832.73 1424.86 3817.73 1423.87 3803.64 1421.88C3789.55 1419.89 3776.63 1417.36 3764.89 1414.29C3753.15 1411.04 3742.76 1407.7 3733.72 1404.26L3725.32 1315.37C3739.78 1321.52 3756.85 1327.39 3776.54 1332.99C3796.24 1338.41 3816.92 1341.12 3838.6 1341.12C3857.93 1341.12 3871.39 1339.13 3878.98 1335.16C3886.75 1331.18 3890.63 1324.77 3890.63 1315.92V1314.83C3890.63 1308.87 3888.74 1303.99 3884.94 1300.2C3881.33 1296.22 3875.19 1292.52 3866.51 1289.09C3857.84 1285.47 3846.19 1281.32 3831.56 1276.62C3807.89 1269.03 3787.92 1260.81 3771.66 1251.96C3755.4 1242.93 3743.12 1231.73 3734.81 1218.36C3726.5 1204.81 3722.34 1187.55 3722.34 1166.6V1162.53C3722.34 1130.19 3733.45 1105.53 3755.68 1088.55C3778.08 1071.38 3810.69 1062.8 3853.51 1062.8C3878.62 1062.8 3900.3 1064.88 3918.55 1069.04C3936.97 1073.19 3952.87 1078.25 3966.24 1084.21L3974.64 1167.14C3960.19 1160.63 3944.11 1155.3 3926.41 1151.15C3908.7 1146.81 3890.09 1144.65 3870.58 1144.65C3857.75 1144.65 3847.73 1145.55 3840.5 1147.35C3833.45 1148.98 3828.57 1151.51 3825.86 1154.94C3823.15 1158.19 3821.8 1162.26 3821.8 1167.14V1167.95C3821.8 1173.01 3823.43 1177.53 3826.68 1181.5C3830.11 1185.29 3836.25 1189.18 3845.11 1193.15C3853.96 1197.13 3866.61 1201.74 3883.05 1206.97C3906.53 1214.38 3926.23 1222.15 3942.12 1230.28C3958.2 1238.41 3970.31 1248.89 3978.44 1261.72C3986.57 1274.36 3990.63 1291.53 3990.63 1313.21V1317C3990.63 1352.95 3978.98 1379.96 3955.67 1398.03C3932.37 1415.92 3896.69 1424.86 3848.63 1424.86Z" fill="#3F4188"/>
</svg>
