<svg width="4942" height="2000" viewBox="0 0 4942 2000" fill="none" xmlns="http://www.w3.org/2000/svg">
<path d="M0 664C0 117.196 117.196 0 664 0H1336C1882.8 0 2000 117.196 2000 664V1336C2000 1882.8 1882.8 2000 1336 2000H664C117.196 2000 0 1882.8 0 1336V664Z" fill="#3F4188"/>
<path d="M223.922 1241L237.815 761.111H423.312L492.029 1028.47H496.91L565.627 761.111H750.748L764.642 1241H633.217L630.964 1098.69L628.335 914.69H622.703L552.86 1184.3H435.704L365.485 914.69H359.477L357.224 1099.06L355.347 1241H223.922ZM1187.81 1240.62C1182.81 1235.62 1177.05 1229.73 1170.54 1222.98C1164.03 1215.97 1157.27 1208.83 1150.26 1201.57C1143.25 1194.31 1136.62 1187.43 1130.36 1180.92C1124.1 1174.16 1118.85 1168.53 1114.59 1164.02L1095.44 1141.49L940.733 997.3L917.828 974.395C900.305 957.372 887.412 940.975 879.151 925.204C870.89 909.183 866.76 891.159 866.76 871.132V867.753C866.76 831.955 879.777 803.417 905.812 782.139C931.847 760.861 970.148 750.221 1020.71 750.221C1051.51 750.221 1078.29 752.474 1101.07 756.98C1124.1 761.486 1144 766.994 1160.78 773.502L1172.79 878.642C1155.27 872.634 1135.74 867.628 1114.21 863.623C1092.94 859.617 1072.28 857.614 1052.26 857.614C1035.73 857.614 1024.09 859.993 1017.34 864.749C1010.83 869.505 1007.57 876.139 1007.57 884.65V885.777C1007.57 892.786 1010.08 899.67 1015.08 906.429C1020.34 912.938 1028.1 921.199 1038.36 931.212L1168.66 1057.38L1200.2 1090.42C1209.72 1100.19 1218.73 1109.7 1227.24 1118.96C1236 1127.97 1244.51 1136.86 1252.77 1145.62C1261.03 1154.38 1269.3 1163.27 1277.56 1172.28C1286.07 1181.05 1294.58 1190.18 1303.09 1199.69C1311.6 1209.21 1320.49 1219.35 1329.75 1230.11V1240.62H1187.81ZM1003.44 1252.64C941.61 1252.64 895.799 1238.87 866.009 1211.34C836.47 1183.8 821.7 1145.62 821.7 1096.81V1090.8C821.7 1057.76 828.834 1029.59 843.103 1006.31C857.623 983.031 880.904 963.005 912.946 946.232L985.418 1020.58C973.652 1026.09 965.141 1033.35 959.884 1042.36C954.627 1051.37 951.998 1064.01 951.998 1080.29V1084.79C951.998 1104.07 957.506 1118.96 968.52 1129.48C979.785 1139.99 996.683 1145.25 1019.21 1145.25C1037.49 1145.25 1053.01 1142.37 1065.77 1136.61C1078.79 1130.6 1089.93 1122.84 1099.19 1113.33L1135.62 1070.9C1146.63 1050.87 1155.02 1029.59 1160.78 1007.06C1166.78 984.533 1170.91 961.127 1173.17 936.845H1301.21C1296.46 976.147 1287.57 1012.7 1274.55 1046.49C1261.54 1080.29 1242.26 1112.08 1216.73 1141.87L1172.79 1183.55C1159.27 1197.82 1144.38 1210.21 1128.11 1220.72C1112.09 1230.99 1093.94 1238.87 1073.66 1244.38C1053.38 1249.89 1029.98 1252.64 1003.44 1252.64ZM1559.92 1253.39C1487.07 1253.39 1432.62 1235.74 1396.57 1200.45C1360.52 1164.9 1342.5 1113.58 1342.5 1046.49V961.628C1342.5 894.288 1360.65 842.219 1396.95 805.42C1433.25 768.621 1487.57 750.221 1559.92 750.221C1632.26 750.221 1686.58 768.621 1722.88 805.42C1759.18 842.219 1777.33 894.288 1777.33 961.628V1046.49C1777.33 1113.58 1759.31 1164.9 1723.26 1200.45C1687.21 1235.74 1632.76 1253.39 1559.92 1253.39ZM1559.92 1141.49C1586.7 1141.49 1606.48 1133.86 1619.24 1118.59C1632.26 1103.07 1638.77 1081.29 1638.77 1053.25V954.493C1638.77 924.453 1632.26 901.423 1619.24 885.401C1606.48 869.38 1586.7 861.369 1559.92 861.369C1533.13 861.369 1513.23 869.38 1500.21 885.401C1487.44 901.423 1481.06 924.453 1481.06 954.493V1053.25C1481.06 1081.29 1487.44 1103.07 1500.21 1118.59C1513.23 1133.86 1533.13 1141.49 1559.92 1141.49Z" fill="#F7EDEE"/>
<path d="M2334.2 929L2344.23 582.662H2478.1L2527.7 775.614H2531.22L2580.81 582.662H2714.42L2724.44 929H2629.59L2627.97 826.291L2626.07 693.501H2622.01L2571.6 888.079H2487.05L2436.37 693.501H2432.03L2430.41 826.562L2429.05 929H2334.2ZM2923.12 937.943C2870.55 937.943 2831.26 925.206 2805.24 899.732C2779.22 874.077 2766.22 837.041 2766.22 788.622V727.376C2766.22 678.777 2779.31 641.198 2805.51 614.64C2831.71 588.082 2870.91 574.803 2923.12 574.803C2975.34 574.803 3014.54 588.082 3040.74 614.64C3066.93 641.198 3080.03 678.777 3080.03 727.376V788.622C3080.03 837.041 3067.03 874.077 3041.01 899.732C3014.99 925.206 2975.7 937.943 2923.12 937.943ZM2923.12 857.185C2942.46 857.185 2956.73 851.675 2965.94 840.654C2975.34 829.453 2980.03 813.735 2980.03 793.5V722.227C2980.03 700.547 2975.34 683.926 2965.94 672.363C2956.73 660.8 2942.46 655.019 2923.12 655.019C2903.79 655.019 2889.43 660.8 2880.04 672.363C2870.82 683.926 2866.21 700.547 2866.21 722.227V793.5C2866.21 813.735 2870.82 829.453 2880.04 840.654C2889.43 851.675 2903.79 857.185 2923.12 857.185ZM3275.16 937.943C3223.49 937.943 3185.28 925.748 3160.52 901.358C3135.77 876.787 3123.4 840.835 3123.4 793.5V582.662H3221.77V794.855C3221.77 815.09 3226.11 830.266 3234.78 840.383C3243.45 850.5 3256.91 855.559 3275.16 855.559C3293.4 855.559 3306.77 850.5 3315.27 840.383C3323.94 830.266 3328.27 815.09 3328.27 794.855V582.662H3426.65V793.5C3426.65 840.835 3414.27 876.787 3389.52 901.358C3364.95 925.748 3326.83 937.943 3275.16 937.943ZM3612.98 582.391L3692.12 821.955H3695.91L3691.57 677.241V582.391H3784.26V929H3655.8L3572.88 682.39H3569.08L3573.42 829.272V929H3480.47V582.391H3612.98ZM3917.89 929V601.903H4016.27V929H3917.89ZM3824.94 664.233V582.662H4108.95V664.233H3824.94ZM4085.15 929L4181.36 582.662H4327.42L4422.55 929H4323.63L4257.51 646.889H4251.27L4184.07 929H4085.15ZM4175.94 853.933V779.137H4331.22V853.933H4175.94ZM4553.27 929H4454.9V582.662H4553.27V929ZM4741.97 582.391L4821.11 821.955H4824.9L4820.56 677.241V582.391H4913.25V929H4784.79L4701.87 682.39H4698.07L4702.41 829.272V929H4609.46V582.391H4741.97ZM2588.94 1416.73C2585.33 1413.12 2581.17 1408.87 2576.48 1403.99C2571.78 1398.93 2566.9 1393.78 2561.84 1388.54C2556.78 1383.31 2552 1378.34 2547.48 1373.64C2542.96 1368.76 2539.17 1364.7 2536.1 1361.44L2522.28 1345.18L2410.63 1241.12L2394.09 1224.59C2381.45 1212.3 2372.14 1200.47 2366.18 1189.09C2360.22 1177.53 2357.24 1164.52 2357.24 1150.06V1147.63C2357.24 1121.79 2366.63 1101.19 2385.42 1085.84C2404.21 1070.48 2431.85 1062.8 2468.35 1062.8C2490.57 1062.8 2509.9 1064.43 2526.34 1067.68C2542.96 1070.93 2557.33 1074.91 2569.43 1079.6L2578.1 1155.48C2565.46 1151.15 2551.36 1147.54 2535.83 1144.65C2520.47 1141.75 2505.57 1140.31 2491.11 1140.31C2479.19 1140.31 2470.79 1142.03 2465.91 1145.46C2461.21 1148.89 2458.86 1153.68 2458.86 1159.82V1160.63C2458.86 1165.69 2460.67 1170.66 2464.28 1175.54C2468.08 1180.24 2473.68 1186.2 2481.09 1193.42L2575.12 1284.48L2597.89 1308.33C2604.75 1315.37 2611.26 1322.24 2617.4 1328.92C2623.72 1335.43 2629.86 1341.84 2635.83 1348.17C2641.79 1354.49 2647.75 1360.9 2653.71 1367.41C2659.85 1373.73 2666 1380.32 2672.14 1387.19C2678.28 1394.06 2684.7 1401.37 2691.38 1409.14V1416.73H2588.94ZM2455.88 1425.4C2411.26 1425.4 2378.2 1415.46 2356.7 1395.59C2335.38 1375.72 2324.72 1348.17 2324.72 1312.94V1308.6C2324.72 1284.75 2329.87 1264.43 2340.17 1247.62C2350.64 1230.82 2367.45 1216.37 2390.57 1204.26L2442.87 1257.92C2434.38 1261.9 2428.24 1267.14 2424.45 1273.64C2420.65 1280.14 2418.76 1289.27 2418.76 1301.01V1304.26C2418.76 1318.18 2422.73 1328.92 2430.68 1336.51C2438.81 1344.1 2451 1347.89 2467.26 1347.89C2480.45 1347.89 2491.65 1345.82 2500.87 1341.66C2510.26 1337.33 2518.3 1331.73 2524.99 1324.86L2551.27 1294.24C2559.22 1279.78 2565.28 1264.43 2569.43 1248.17C2573.77 1231.91 2576.75 1215.01 2578.37 1197.49H2670.79C2667.35 1225.85 2660.94 1252.23 2651.54 1276.62C2642.15 1301.01 2628.24 1323.96 2609.81 1345.46L2578.1 1375.54C2568.35 1385.83 2557.6 1394.78 2545.85 1402.37C2534.29 1409.77 2521.19 1415.46 2506.56 1419.44C2491.93 1423.41 2475.03 1425.4 2455.88 1425.4ZM2962.29 1425.94C2909.72 1425.94 2870.42 1413.21 2844.41 1387.73C2818.39 1362.08 2805.38 1325.04 2805.38 1276.62V1215.38C2805.38 1166.78 2818.48 1129.2 2844.68 1102.64C2870.87 1076.08 2910.08 1062.8 2962.29 1062.8C3014.5 1062.8 3053.71 1076.08 3079.91 1102.64C3106.1 1129.2 3119.2 1166.78 3119.2 1215.38V1276.62C3119.2 1325.04 3106.19 1362.08 3080.18 1387.73C3054.16 1413.21 3014.87 1425.94 2962.29 1425.94ZM2962.29 1345.18C2981.62 1345.18 2995.9 1339.67 3005.11 1328.65C3014.5 1317.45 3019.2 1301.73 3019.2 1281.5V1210.23C3019.2 1188.55 3014.5 1171.93 3005.11 1160.36C2995.9 1148.8 2981.62 1143.02 2962.29 1143.02C2942.96 1143.02 2928.6 1148.8 2919.2 1160.36C2909.99 1171.93 2905.38 1188.55 2905.38 1210.23V1281.5C2905.38 1301.73 2909.99 1317.45 2919.2 1328.65C2928.6 1339.67 2942.96 1345.18 2962.29 1345.18ZM3131.36 1417L3227.56 1070.66H3373.63L3468.75 1417H3369.84L3303.71 1134.89H3297.48L3230.27 1417H3131.36ZM3222.14 1341.93V1267.14H3377.43V1341.93H3222.14ZM3695.41 1417L3602.73 1266.87H3587.83V1212.67H3602.73L3694.33 1070.66H3805.17L3687.28 1245.19V1223.51L3808.96 1417H3695.41ZM3501.11 1417V1070.66H3598.4V1417H3501.11ZM3944.63 1424.86C3928.73 1424.86 3913.73 1423.87 3899.64 1421.88C3885.55 1419.89 3872.63 1417.36 3860.89 1414.29C3849.15 1411.04 3838.76 1407.7 3829.72 1404.26L3821.32 1315.37C3835.78 1321.52 3852.85 1327.39 3872.54 1332.99C3892.24 1338.41 3912.92 1341.12 3934.6 1341.12C3953.93 1341.12 3967.39 1339.13 3974.98 1335.16C3982.75 1331.18 3986.63 1324.77 3986.63 1315.92V1314.83C3986.63 1308.87 3984.74 1303.99 3980.94 1300.2C3977.33 1296.22 3971.19 1292.52 3962.51 1289.09C3953.84 1285.47 3942.19 1281.32 3927.56 1276.62C3903.89 1269.03 3883.92 1260.81 3867.66 1251.96C3851.4 1242.93 3839.12 1231.73 3830.81 1218.36C3822.5 1204.81 3818.34 1187.55 3818.34 1166.6V1162.53C3818.34 1130.19 3829.45 1105.53 3851.68 1088.55C3874.08 1071.38 3906.69 1062.8 3949.51 1062.8C3974.62 1062.8 3996.3 1064.88 4014.55 1069.04C4032.97 1073.19 4048.87 1078.25 4062.24 1084.21L4070.64 1167.14C4056.19 1160.63 4040.11 1155.3 4022.41 1151.15C4004.7 1146.81 3986.09 1144.65 3966.58 1144.65C3953.75 1144.65 3943.73 1145.55 3936.5 1147.35C3929.45 1148.98 3924.57 1151.51 3921.86 1154.94C3919.15 1158.19 3917.8 1162.26 3917.8 1167.14V1167.95C3917.8 1173.01 3919.43 1177.53 3922.68 1181.5C3926.11 1185.29 3932.25 1189.18 3941.11 1193.15C3949.96 1197.13 3962.61 1201.74 3979.05 1206.97C4002.53 1214.38 4022.23 1222.15 4038.12 1230.28C4054.2 1238.41 4066.31 1248.89 4074.44 1261.72C4082.57 1274.36 4086.63 1291.53 4086.63 1313.21V1317C4086.63 1352.95 4074.98 1379.96 4051.67 1398.03C4028.37 1415.92 3992.69 1424.86 3944.63 1424.86Z" fill="#3F4188"/>
</svg>
