<svg width="2000" height="2000" viewBox="0 0 2000 2000" fill="none" xmlns="http://www.w3.org/2000/svg">
<path d="M0 664C0 117.196 117.196 0 664 0H1336C1882.8 0 2000 117.196 2000 664V1336C2000 1882.8 1882.8 2000 1336 2000H664C117.196 2000 0 1882.8 0 1336V664Z" fill="#3F4188"/>
<path d="M217.299 957L223.385 746.769H304.648L334.752 863.893H336.89L366.994 746.769H448.092L454.179 957H396.604L395.617 894.654L394.465 814.049H391.998L361.401 932.16H310.077L279.315 814.049H276.683L275.696 894.819L274.874 957H217.299ZM574.78 962.428C542.867 962.428 519.015 954.697 503.223 939.234C487.431 923.661 479.535 901.18 479.535 871.789V834.612C479.535 805.112 487.485 782.301 503.387 766.18C519.289 750.059 543.086 741.998 574.78 741.998C606.474 741.998 630.271 750.059 646.173 766.18C662.075 782.301 670.026 805.112 670.026 834.612V871.789C670.026 901.18 662.13 923.661 646.338 939.234C630.546 954.697 606.693 962.428 574.78 962.428ZM574.78 913.407C586.514 913.407 595.178 910.063 600.771 903.373C606.474 896.574 609.325 887.033 609.325 874.75V831.486C609.325 818.326 606.474 808.237 600.771 801.218C595.178 794.2 586.514 790.69 574.78 790.69C563.046 790.69 554.327 794.2 548.625 801.218C543.032 808.237 540.235 818.326 540.235 831.486V874.75C540.235 887.033 543.032 896.574 548.625 903.373C554.327 910.063 563.046 913.407 574.78 913.407ZM788.468 962.428C757.104 962.428 733.909 955.026 718.885 940.221C703.86 925.306 696.348 903.483 696.348 874.75V746.769H756.062V875.572C756.062 887.855 758.694 897.067 763.958 903.208C769.222 909.35 777.392 912.42 788.468 912.42C799.545 912.42 807.66 909.35 812.814 903.208C818.078 897.067 820.71 887.855 820.71 875.572V746.769H880.424V874.75C880.424 903.483 872.912 925.306 857.887 940.221C842.973 955.026 819.833 962.428 788.468 962.428ZM993.533 746.604L1041.57 892.022H1043.87L1041.24 804.179V746.604H1097.5V957H1019.52L969.187 807.305H966.884L969.516 896.464V957H913.092V746.604H993.533ZM1178.62 957V758.448H1238.33V957H1178.62ZM1122.19 796.283V746.769H1294.59V796.283H1122.19ZM1280.14 957L1338.54 746.769H1427.21L1484.95 957H1424.9L1384.77 785.755H1380.98L1340.19 957H1280.14ZM1335.25 911.433V866.031H1429.51V911.433H1335.25ZM1564.3 957H1504.59V746.769H1564.3V957ZM1678.84 746.604L1726.88 892.022H1729.18L1726.55 804.179V746.604H1782.81V957H1704.83L1654.5 807.305H1652.19L1654.83 896.464V957H1598.4V746.604H1678.84ZM371.928 1252.84C369.735 1250.64 367.213 1248.06 364.362 1245.1C361.51 1242.03 358.549 1238.91 355.479 1235.73C352.408 1232.55 349.502 1229.53 346.76 1226.68C344.018 1223.72 341.715 1221.25 339.851 1219.28L331.462 1209.41L263.688 1146.24L253.653 1136.2C245.976 1128.75 240.329 1121.56 236.71 1114.66C233.091 1107.64 231.281 1099.74 231.281 1090.97V1089.49C231.281 1073.8 236.984 1061.3 248.389 1051.98C259.794 1042.66 276.573 1038 298.726 1038C312.215 1038 323.949 1038.99 333.929 1040.96C344.018 1042.93 352.737 1045.35 360.085 1048.2L365.349 1094.26C357.672 1091.63 349.118 1089.43 339.687 1087.68C330.365 1085.92 321.317 1085.05 312.544 1085.05C305.306 1085.05 300.207 1086.09 297.246 1088.17C294.394 1090.25 292.969 1093.16 292.969 1096.89V1097.38C292.969 1100.45 294.065 1103.47 296.259 1106.43C298.562 1109.28 301.961 1112.9 306.458 1117.29L363.539 1172.56L377.357 1187.04C381.524 1191.31 385.472 1195.48 389.201 1199.54C393.039 1203.49 396.768 1207.38 400.387 1211.22C404.006 1215.06 407.625 1218.95 411.244 1222.9C414.973 1226.73 418.701 1230.74 422.43 1234.9C426.159 1239.07 430.052 1243.51 434.11 1248.23V1252.84H371.928ZM291.159 1258.1C264.071 1258.1 244.002 1252.07 230.952 1240C218.011 1227.94 211.541 1211.22 211.541 1189.83V1187.2C211.541 1172.72 214.667 1160.39 220.918 1150.19C227.278 1139.99 237.477 1131.22 251.515 1123.87L283.263 1156.44C278.109 1158.85 274.38 1162.03 272.077 1165.98C269.774 1169.93 268.623 1175.47 268.623 1182.59V1184.57C268.623 1193.01 271.035 1199.54 275.861 1204.14C280.796 1208.75 288.198 1211.05 298.068 1211.05C306.074 1211.05 312.873 1209.79 318.466 1207.27C324.169 1204.64 329.049 1201.24 333.107 1197.07L349.063 1178.48C353.888 1169.71 357.562 1160.39 360.085 1150.52C362.717 1140.65 364.526 1130.39 365.513 1119.75H421.608C419.524 1136.97 415.631 1152.98 409.928 1167.79C404.225 1182.59 395.781 1196.52 384.595 1209.57L365.349 1227.83C359.427 1234.08 352.901 1239.51 345.773 1244.12C338.754 1248.61 330.804 1252.07 321.921 1254.48C313.038 1256.89 302.784 1258.1 291.159 1258.1ZM598.556 1258.43C566.643 1258.43 542.79 1250.7 526.998 1235.23C511.206 1219.66 503.31 1197.18 503.31 1167.79V1130.61C503.31 1101.11 511.261 1078.3 527.163 1062.18C543.064 1046.06 566.862 1038 598.556 1038C630.249 1038 654.047 1046.06 669.949 1062.18C685.85 1078.3 693.801 1101.11 693.801 1130.61V1167.79C693.801 1197.18 685.905 1219.66 670.113 1235.23C654.321 1250.7 630.469 1258.43 598.556 1258.43ZM598.556 1209.41C610.29 1209.41 618.954 1206.06 624.547 1199.37C630.249 1192.57 633.101 1183.03 633.101 1170.75V1127.49C633.101 1114.33 630.249 1104.24 624.547 1097.22C618.954 1090.2 610.29 1086.69 598.556 1086.69C586.821 1086.69 578.103 1090.2 572.4 1097.22C566.807 1104.24 564.011 1114.33 564.011 1127.49V1170.75C564.011 1183.03 566.807 1192.57 572.4 1199.37C578.103 1206.06 586.821 1209.41 598.556 1209.41ZM701.18 1253L759.578 1042.77H848.243L905.983 1253H845.94L805.802 1081.76H802.019L761.223 1253H701.18ZM756.288 1207.43V1162.03H850.546V1207.43H756.288ZM1043.57 1253L987.31 1161.87H978.263V1128.97H987.31L1042.91 1042.77H1110.19L1038.63 1148.71V1135.55L1112.49 1253H1043.57ZM925.623 1253V1042.77H984.678V1253H925.623ZM1194.84 1257.77C1185.19 1257.77 1176.09 1257.17 1167.54 1255.96C1158.98 1254.75 1151.14 1253.22 1144.01 1251.35C1136.89 1249.38 1130.58 1247.35 1125.1 1245.27L1120 1191.31C1128.77 1195.04 1139.13 1198.61 1151.09 1202C1163.04 1205.29 1175.6 1206.94 1188.76 1206.94C1200.49 1206.94 1208.66 1205.73 1213.27 1203.32C1217.98 1200.91 1220.34 1197.02 1220.34 1191.64V1190.98C1220.34 1187.36 1219.19 1184.4 1216.89 1182.1C1214.69 1179.69 1210.97 1177.44 1205.7 1175.36C1200.44 1173.16 1193.36 1170.64 1184.48 1167.79C1170.12 1163.18 1158 1158.19 1148.13 1152.82C1138.26 1147.34 1130.8 1140.54 1125.75 1132.42C1120.71 1124.2 1118.19 1113.72 1118.19 1101V1098.53C1118.19 1078.9 1124.93 1063.93 1138.42 1053.63C1152.02 1043.21 1171.81 1038 1197.81 1038C1213.05 1038 1226.21 1039.26 1237.29 1041.78C1248.47 1044.3 1258.12 1047.37 1266.24 1050.99L1271.34 1101.33C1262.56 1097.38 1252.8 1094.15 1242.06 1091.63C1231.31 1088.99 1220.01 1087.68 1208.17 1087.68C1200.38 1087.68 1194.3 1088.23 1189.91 1089.32C1185.63 1090.31 1182.67 1091.84 1181.03 1093.93C1179.38 1095.9 1178.56 1098.37 1178.56 1101.33V1101.82C1178.56 1104.9 1179.55 1107.64 1181.52 1110.05C1183.6 1112.35 1187.33 1114.71 1192.71 1117.12C1198.08 1119.54 1205.76 1122.33 1215.74 1125.51C1229.99 1130.01 1241.95 1134.72 1251.6 1139.66C1261.36 1144.59 1268.71 1150.96 1273.64 1158.74C1278.58 1166.42 1281.04 1176.84 1281.04 1190V1192.3C1281.04 1214.12 1273.97 1230.52 1259.82 1241.48C1245.68 1252.34 1224.02 1257.77 1194.84 1257.77Z" fill="#F7EDEE"/>
</svg>
