<svg fill="none" height="366" viewBox="0 0 366 366" width="366" xmlns="http://www.w3.org/2000/svg"><g fill="#000"><path d="m182.667.666992c-100.886 0-182.667 81.781008-182.667 182.667008 0 100.885 81.781 182.666 182.667 182.666 100.885 0 182.666-81.781 182.666-182.666 0-100.886-81.781-182.667008-182.666-182.667008zm0 333.016008c-82.9009 0-150.3501-67.448-150.3501-150.349 0-82.902 67.4485-150.3501 150.3501-150.3501 82.907 0 150.356 67.4481 150.356 150.3501 0 82.901-67.451 150.349-150.356 150.349z"/><path d="m152.705 73.7884c-22.342 9.8393-36.753 28.5196-42 49.4276-2.505 9.982 5.609 19.534 15.899 19.534 7.401 0 13.764-5.035 15.647-12.195 3.262-12.401 12.264-23.324 26.331-28.286 13.944-4.9201 30.047-1.535 40.844 8.565 20.188 18.885 16.567 50.171-4.954 64.487l-6.567 4.367-8.259 5.494c-15.025 9.992-24.054 26.841-24.054 44.885v9.92l32.314-21.492 24.456-16.264c37.731-25.098 44.706-79.096 11.1-113.1368-20.859-21.1275-53.583-27.2702-80.758-15.3035z"/><path d="m184.026 254.931c-12.151 0-22.002 9.85-22.002 21.999 0 12.148 9.851 21.999 22.002 21.999 12.149 0 21.999-9.851 21.999-21.999 0-12.152-9.85-21.999-21.999-21.999z"/></g></svg>