<svg width="366" height="366" viewBox="0 0 366 366" fill="none" xmlns="http://www.w3.org/2000/svg">
<path d="M182.667 0.666992C81.781 0.666992 0 82.448 0 183.334C0 284.219 81.781 366 182.667 366C283.552 366 365.333 284.219 365.333 183.334C365.333 82.448 283.552 0.666992 182.667 0.666992ZM182.667 333.683C99.7661 333.683 32.3169 266.235 32.3169 183.334C32.3169 100.432 99.7654 32.9839 182.667 32.9839C265.574 32.9839 333.023 100.432 333.023 183.334C333.023 266.235 265.572 333.683 182.667 333.683Z" fill="black"/>
<path d="M152.705 73.7884C130.363 83.6277 115.952 102.308 110.705 123.216C108.2 133.198 116.314 142.75 126.604 142.75C134.005 142.75 140.368 137.715 142.251 130.555C145.513 118.154 154.515 107.231 168.582 102.269C182.526 97.3489 198.629 100.734 209.426 110.834C229.614 129.719 225.993 161.005 204.472 175.321L197.905 179.688L189.646 185.182C174.621 195.174 165.592 212.023 165.592 230.067V239.987L197.906 218.495L222.362 202.231C260.093 177.133 267.068 123.135 233.462 89.0942C212.603 67.9667 179.879 61.824 152.704 73.7907L152.705 73.7884Z" fill="black"/>
<path d="M184.026 254.931C171.875 254.931 162.024 264.781 162.024 276.93C162.024 289.078 171.875 298.929 184.026 298.929C196.175 298.929 206.025 289.078 206.025 276.93C206.025 264.778 196.175 254.931 184.026 254.931Z" fill="black"/>
</svg>