<svg fill="none" height="18" viewBox="0 0 18 18" width="18" xmlns="http://www.w3.org/2000/svg"><path d="m17.5775.422051c-.2709-.270401-.6382-.42219377-1.021-.4220509-.3828 0-.75.1518039-1.0209.4220509l-2.838 2.838239c-.9705-.56579-1.8541-.61922-2.3516-.12153-.0062.00739-7.34549 7.34694-7.34549 7.34694-.50327.5034-.42652 1.4087.11999 2.352l-2.698964 2.6989c-.3639013.365-.5057755.8962-.3721166 1.3938.1335266.4977.5223846.8866 1.0200906 1.0202.4977.1335 1.02901-.0082 1.39384-.3721l2.70051-2.7004v.0001c.43573.2749.93468.4331 1.44924.4595.33375.0139.65897-.108.90118-.3382l7.34692-7.34698c.4947-.4967.4419-1.37934-.1218-2.34989l2.8383-2.83852c.2704-.27096.4223-.63818.4223-1.02105s-.1519-.750091-.4223-1.021052zm-5.4706 3.429949c-.1015.11915-.1672.26468-.1894.41955-.0223.15487-.0003.31296.0635.45584.1112.2944.286.56046.5121.77924.2952.33304.7069.54024 1.1505.57889.1865.00502.3675-.06419.5031-.19227.2908.58.3105 1.03055.1474 1.19365-.276.27598-1.3353.01785-2.3674-1.01395-1.0277-1.02787-1.2879-2.08186-1.0185-2.36385.1687-.16813.6192-.14871 1.1987.1429zm-10.20949 13.1609c-.16268.1625-.39972.2261-.622.1666-.22213-.0596-.395691-.2332-.455126-.4553-.059579-.2223.003907-.4593.166595-.6219l2.595601-2.5956c.13548.1669.2796.3268.43169.4787.15292.1514.31351.2949.48138.4294zm5.05097-2.5792c-.27543.2762-1.3357.0186-2.36847-1.0139-1.03219-1.0323-1.29004-2.0922-1.01394-2.3683l6.50793-6.50831c.2336.80117.6781 1.52486 1.2871 2.09539.5708.60933 1.2952 1.05313 2.0972 1.28516zm10.06332-12.5354-3.3867 3.38655c-.219-.05525-.4163-.17524-.5663-.34421-.1689-.14985-.2888-.34714-.3442-.56621l3.3866-3.386693c.1208-.120829.2845-.188637.4552-.188637.1708 0 .3346.067808.4554.188497.1207.120833.1885.284493.1887.455273 0 .17077-.068.3346-.1887.45543z" fill="#000"/></svg>