<svg width="446" height="445" viewBox="0 0 446 445" fill="none" xmlns="http://www.w3.org/2000/svg">
<path d="M14.3012 430.17C24.1858 440.055 36.8976 445 49.6041 445C62.3107 445 75.0223 440.055 84.9071 430.17L222.589 292.489L360.27 430.17C370.155 440.055 382.867 445 395.573 445C408.28 445 420.991 440.055 430.876 430.17C449.941 411.105 449.941 379.334 430.876 360.269L292.489 222.587L430.876 84.1998C449.941 65.1349 449.941 33.3635 430.876 14.2986C411.811 -4.76622 380.04 -4.76622 360.975 14.2986L222.587 152.686L84.9059 15.0047C65.841 -4.06015 34.0696 -4.06015 15.0047 15.0047C-4.06016 34.0696 -4.06016 65.841 15.0047 84.9059L152.686 222.587L14.2986 360.975C-4.76622 380.035 -4.76622 411.103 14.2986 430.168L14.3012 430.17Z" fill="black"/>
</svg>
