<svg width="446" height="445" viewBox="0 0 446 445" fill="none" xmlns="http://www.w3.org/2000/svg">
<path d="M176.44 245.518C170.334 245.512 164.479 247.939 160.168 252.263L46.0642 366.422V329.918C46.0642 321.689 41.675 314.087 34.5481 309.971C27.4211 305.858 18.6424 305.858 11.516 309.971C4.389 314.087 0 321.689 0 329.918V421.986C0 428.089 2.42431 433.943 6.74211 438.258C11.0568 442.576 16.9112 445 23.0141 445H115.082C123.311 445 130.913 440.611 135.029 433.484C139.142 426.357 139.142 417.578 135.029 410.452C130.913 403.325 123.311 398.936 115.082 398.936H78.5775L192.753 284.808C197.067 280.488 199.488 274.63 199.485 268.521C199.479 262.416 197.049 256.558 192.728 252.244C188.404 247.929 182.547 245.508 176.437 245.514L176.44 245.518ZM421.994 0.00357592H329.926C321.697 0.00357592 314.095 4.39274 309.979 11.5196C305.866 18.6467 305.866 27.4253 309.979 34.5517C314.095 41.6787 321.697 46.0677 329.926 46.0677H366.431L252.271 160.195C246.457 166.009 244.188 174.483 246.315 182.427C248.444 190.37 254.646 196.573 262.589 198.701C270.532 200.828 279.006 198.559 284.821 192.745L398.948 78.5934V115.098C398.948 123.327 403.337 130.929 410.464 135.045C417.591 139.158 426.37 139.158 433.496 135.045C440.623 130.929 445.012 123.327 445.012 115.098V23.0141C445.012 16.9115 442.588 11.0571 438.27 6.74211C433.956 2.42431 428.101 0 421.998 0L421.994 0.00357592Z" fill="black"/>
</svg>
