<svg width="347" height="445" viewBox="0 0 347 445" fill="none" xmlns="http://www.w3.org/2000/svg">
<path d="M73.9199 445H40.3218C17.9209 445 0.00520824 427.079 0.00520824 404.683L0 40.3166C0 17.9157 17.921 0 40.3166 0H73.9147C96.3156 0 114.231 17.921 114.231 40.3166V404.683C114.236 427.084 96.3195 445 73.9199 445Z" fill="white"/>
<path d="M306.131 445H272.533C250.132 445 232.216 427.079 232.216 404.683L232.211 40.3166C232.211 17.9157 250.132 0 272.528 0H306.126C328.527 0 346.442 17.921 346.442 40.3166V404.683C346.447 427.084 327.781 445 306.131 445Z" fill="white"/>
</svg>
