<svg width="396" height="445" viewBox="0 0 396 445" fill="none" xmlns="http://www.w3.org/2000/svg">
<path d="M353.648 81.1077L287.101 5.45994C283.118 0.909196 277.428 -0.796836 271.743 0.341841C271.176 0.341841 270.604 0.341841 270.604 0.909189C265.486 2.61522 261.503 6.59862 259.797 11.1452L250.128 41.8573C215.432 33.8946 179.598 35.0331 145.472 45.2694C36.8353 78.2627 -24.0242 192.594 8.96504 300.093C41.3875 408.161 155.71 469.021 263.21 436.031C323.499 417.828 370.709 374.035 394.029 315.45C398.58 303.504 392.89 290.423 380.948 285.305C369.002 280.754 355.921 286.443 350.803 298.386C333.172 343.889 296.198 377.446 249.56 391.666C166.516 417.26 78.3572 370.051 52.7621 287.01C27.168 203.97 74.9445 115.238 157.986 89.6433C183.014 82.248 209.746 80.542 235.341 85.66L227.945 108.981C226.239 114.67 227.378 120.356 231.357 124.907C235.341 129.458 241.026 131.164 246.715 129.458L344.545 106.708C345.113 106.708 345.113 106.708 345.684 106.141C350.802 104.435 354.786 100.452 356.492 95.905C358.765 91.3503 357.059 85.0931 353.647 81.1106L353.648 81.1077Z" fill="white"/>
</svg>
