<svg width="446" height="445" viewBox="0 0 446 445" fill="none" xmlns="http://www.w3.org/2000/svg">
<path d="M445.002 23.0135C445.002 16.9108 442.578 11.0532 438.26 6.73905C433.942 2.42123 428.088 -0.00309617 421.982 2.96769e-06C415.877 2.96769e-06 410.022 2.42743 405.708 6.74525L291.556 120.897V84.3923C291.556 76.1636 287.167 68.5612 280.04 64.4449C272.913 60.332 264.134 60.332 257.008 64.4449C249.881 68.561 245.492 76.1629 245.492 84.3923V176.437C245.482 182.558 247.913 188.431 252.243 192.755C256.573 197.079 262.447 199.503 268.568 199.488H360.612C368.841 199.488 376.443 195.096 380.56 187.972C384.673 180.845 384.673 172.063 380.56 164.94C376.444 157.812 368.842 153.423 360.612 153.423H324.108L438.259 39.2955C442.586 34.9839 445.014 29.1232 445.005 23.0147L445.002 23.0135ZM176.434 245.516H84.3891C76.1605 245.516 68.5581 249.908 64.4418 257.032C60.3288 264.159 60.3288 272.941 64.4418 280.064C68.5579 287.191 76.1597 291.58 84.3891 291.58H120.894L6.74211 405.708C0.928119 411.522 -1.34427 419.999 0.785319 427.94C2.91165 435.884 9.11645 442.089 17.0598 444.215C25.0001 446.344 33.4773 444.072 39.2918 438.258L153.444 324.106V360.611C153.444 368.84 157.833 376.442 164.96 380.558C172.087 384.671 180.865 384.671 187.992 380.558C195.119 376.442 199.508 368.84 199.508 360.611V268.566C199.517 262.445 197.087 256.572 192.756 252.248C188.426 247.925 182.553 245.5 176.432 245.515L176.434 245.516Z" fill="black"/>
</svg>
