<svg width="385" height="445" viewBox="0 0 385 445" fill="none" xmlns="http://www.w3.org/2000/svg">
<path fill-rule="evenodd" clip-rule="evenodd" d="M131.481 20.2258C131.481 9.05456 140.536 0 151.707 0H232.619C243.79 0 252.845 9.05456 252.845 20.2258C252.845 31.397 243.79 40.4516 232.619 40.4516H212.39V61.7321C309.013 71.8378 384.324 153.551 384.324 252.838C384.324 358.969 298.291 445 192.162 445C86.0332 445 0 358.967 0 252.838C0 153.542 75.3135 71.8369 171.935 61.7321V40.4516H151.705C140.534 40.4516 131.479 31.397 131.479 20.2258H131.481ZM68.3332 48.2401C76.2311 56.138 76.2311 68.9463 68.3332 76.8441L53.1616 92.0157C53.1651 92.0157 53.158 92.0192 53.1616 92.0157L37.99 107.187C30.0921 115.085 17.2838 115.085 9.38236 107.187C1.48447 99.2894 1.48447 86.4811 9.38236 78.5797L24.554 63.4117L39.7256 48.2401C47.627 40.3387 60.4318 40.3387 68.3332 48.2401ZM315.995 48.2401C323.896 40.3387 336.705 40.3387 344.602 48.2401L374.946 78.5797C382.844 86.4811 382.844 99.2895 374.946 107.187C367.044 115.085 354.236 115.085 346.338 107.187L315.995 76.8441C308.097 68.9462 308.097 56.1379 315.995 48.2401ZM192.164 101.137C108.378 101.137 40.457 169.058 40.457 252.844C40.457 336.631 108.378 404.551 192.164 404.551C275.947 404.551 343.871 336.631 343.871 252.844C343.871 169.061 275.947 101.137 192.164 101.137ZM192.164 151.706C203.335 151.706 212.39 160.761 212.39 171.932V241.39L253.139 265.839C262.719 271.588 265.823 284.012 260.077 293.588C254.331 303.168 241.904 306.277 232.327 300.527L181.758 270.187C175.663 266.529 171.938 259.947 171.938 252.839V171.931C171.938 160.759 180.992 151.705 192.164 151.705L192.164 151.706Z" fill="black"/>
</svg>
